<?xml version="1.0" encoding="UTF-8" standalone="no"?>
<!-- Uploaded to: SVG Repo, www.svgrepo.com, Generator: SVG Repo Mixer Tools -->

<svg
   fill="#000000"
   height="500"
   width="650"
   version="1.1"
   id="Icons"
   viewBox="0 0 26 20"
   xml:space="preserve"
   sodipodi:docname="mail.svg"
   inkscape:version="1.2.2 (732a01da63, 2022-12-09)"
   xmlns:inkscape="http://www.inkscape.org/namespaces/inkscape"
   xmlns:sodipodi="http://sodipodi.sourceforge.net/DTD/sodipodi-0.dtd"
   xmlns="http://www.w3.org/2000/svg"
   xmlns:svg="http://www.w3.org/2000/svg"><defs
   id="defs7" /><sodipodi:namedview
   id="namedview5"
   pagecolor="#ffffff"
   bordercolor="#000000"
   borderopacity="0.25"
   inkscape:showpageshadow="2"
   inkscape:pageopacity="0.0"
   inkscape:pagecheckerboard="0"
   inkscape:deskcolor="#d1d1d1"
   showgrid="false"
   inkscape:zoom="1.04625"
   inkscape:cx="325.44803"
   inkscape:cy="250.41816"
   inkscape:window-width="1920"
   inkscape:window-height="1017"
   inkscape:window-x="-8"
   inkscape:window-y="-8"
   inkscape:window-maximized="1"
   inkscape:current-layer="Icons" />
<path
   d="M 23,0 H 3 C 1.3,0 0,1.3 0,3 v 14 c 0,1.7 1.3,3 3,3 h 20 c 1.7,0 3,-1.3 3,-3 V 3 C 26,1.3 24.7,0 23,0 Z m -1.3,14.2 c 0.4,0.4 0.5,1 0.1,1.4 -0.2,0.3 -0.5,0.4 -0.8,0.4 -0.2,0 -0.5,-0.1 -0.7,-0.2 l -5.1,-4.4 -1.6,1.4 C 13.5,12.9 13.2,13 13,13 12.8,13 12.5,12.9 12.3,12.8 L 10.7,11.4 5.6,15.8 C 5.5,15.9 5.2,16 5,16 4.7,16 4.4,15.9 4.2,15.7 3.8,15.3 3.9,14.7 4.3,14.3 L 9.2,10.1 4.3,5.9 C 3.9,5.5 3.8,4.9 4.2,4.5 4.6,4.1 5.2,4 5.6,4.4 l 7.3,6.4 7.3,-6.4 c 0.4,-0.4 1,-0.3 1.4,0.1 0.4,0.4 0.3,1 -0.1,1.4 L 16.8,10 Z"
   id="path2" />
</svg>
